# xmcd CD database file
# Copyright (C) 1993-1998 Ti Kan
# 
# Track frame offsets:
#     225
#     10542
#     21545
#     31527
#     42997
#     63710
#     75320
#     83627
#     90372
#     101885
#     109997
#     120220
#     138280
#     149352
#     157840
#     167172
#     174010
#     189677
#     201245
#     215695
#     228085
#     238717
#     245732
#     265487
# 
# Disc length: 3762 seconds
# 
# Revision: 1
# Processed by: cddbd v1.4b41PL1 Copyright (c) Steve Scherf et al.
# Submitted via: DiscPlay 4.0.4
# 
DISCID=3a0eaf18
DTITLE=Fats Domino - Greatest Hits
DYEAR=1900
DGENRE=
TTITLE0=My Girl Josephine
TTITLE1=The Fat Man
TTITLE2=I'm Gonna Be a Wheel Someday
TTITLE3=Blue Monday
TTITLE4=Jambalaya
TTITLE5=Blueberry Hill
TTITLE6=When the Saints Go Marchin' In
TTITLE7=Sentimental Journey
TTITLE8=Fats Boogie
TTITLE9=My Toot Toot
TTITLE10=I Can't Go On
TTITLE11=So Long/Stormy Weather
TTITLE12=Going to the River
TTITLE13=I'm Ready
TTITLE14=I Want To Walk You Home
TTITLE15=Whole Lotta Loving
TTITLE16=I Almost Lost My Mind
TTITLE17=Ain't That a Shame
TTITLE18=I'm In Love Again
TTITLE19=I'm Walkin'
TTITLE20=Walking To New Orleans
TTITLE21=Poor Me
TTITLE22=Let the Four Winds Blow
TTITLE23=Shake, Rattle and Roll
EXTD=
EXTT0=
EXTT1=
EXTT2=
EXTT3=
EXTT4=
EXTT5=
EXTT6=
EXTT7=
EXTT8=
EXTT9=
EXTT10=
EXTT11=
EXTT12=
EXTT13=
EXTT14=
EXTT15=
EXTT16=
EXTT17=
EXTT18=
EXTT19=
EXTT20=
EXTT21=
EXTT22=
EXTT23=
PLAYORDER=
